<svg height="512" viewBox="0 0 48 60" width="512" xmlns="http://www.w3.org/2000/svg"><g id="Page-1" fill="none" fill-rule="evenodd"><g id="011---Apple-Core" fill-rule="nonzero" transform="translate(-1 -1)"><path id="Shape" d="m47.99 19.3c.0538454.3931739-.1284807.7812633-.4654882.9908128s-.7657145.2013974-1.0945118-.0208128c-1.9928394-1.2903552-4.4599675-1.6171028-6.72-.89-.9011464.2781689-1.7375523.7337721-2.46 1.34-.374224.3200877-.925776.3200877-1.3 0-1.3768331-1.1308663-3.1083908-1.7399214-4.89-1.72h-.04c-1.9963161-.0285439-3.9204028.7461352-5.34 2.15-.3888435.3811429-1.0111565.3811429-1.4 0-1.4195972-1.4038648-3.3436839-2.1785439-5.34-2.15-1.7816092-.0199214-3.5131669.5891337-4.89 1.72-.374224.3200877-.925776.3200877-1.3 0-.7224477-.6062279-1.5588536-1.0618311-2.46-1.34-2.26003247-.7271028-4.72716062-.4003552-6.72.89-.32879732.2222102-.75750432.2303623-1.09451181.0208128-.33700748-.2095495-.51933356-.5976389-.46548819-.9908128 1-6.63 5.77-11.3 12.9-11.3 8.06 0 10.07 3 10.07 3h.04s2.01-3 10.07-3c7.13 0 11.9 4.67 12.9 11.3z" fill="#f44335"/><path id="Shape" d="m35.09 8c-.607 0-1.17.022-1.71.053 6.413.531 10.672 5.025 11.61 11.247.0099599.0810284.0099599.1629716 0 .244.5053394.1880756.9882855.431561 1.44.726.3287973.2222102.7575043.2303623 1.0945118.0208128s.5193336-.5976389.4654882-.9908128c-1-6.63-5.77-11.3-12.9-11.3z" fill="#c81e1e"/><path id="Shape" d="m8.205 16c-.38670883-.000198-.73864186-.2233434-.90375441-.5730312-.16511256-.3496879-.11380578-.7632315.13175441-1.0619688 1.86823813-2.2288451 4.6606431-3.470611 7.567-3.365.5522847 0 1 .4477153 1 1s-.4477153 1-1 1c-2.3064159-.0958134-4.5281945.877091-6.022 2.637-.19044704.2304704-.47402467.3636381-.773.363z" fill="#f5f5f5"/><path id="Shape" d="m47.54 46.91c-1.25 4.62-5.81 13.09-22.54 13.09s-21.29-8.47-22.54-13.09c-.09854853-.395471.05276807-.8111802.38247554-1.0507676.32970746-.2395874.77182725-.2551087 1.11752446-.0392324 1.20372862.776818 2.60739306 1.1867992 4.04 1.18.50377481.0006262 1.00632493-.0496288 1.5-.15 1.2346249-.2217606 2.389624-.7630587 3.35-1.57.374224-.3200877.925776-.3200877 1.3 0 3.0075869 2.4481548 7.3700235 2.2635241 10.16-.43.1783768-.1914847.4283042-.3002333.69-.3002333s.5116232.1087486.69.3002333c2.7899765 2.6935241 7.1524131 2.8781548 10.16.43.374224-.3200877.925776-.3200877 1.3 0 .960376.8069413 2.1153751 1.3482394 3.35 1.57.4936751.1003712.9962252.1506262 1.5.15 1.4326069.0067992 2.8362714-.403182 4.04-1.18.3456972-.2158763.787817-.200355 1.1175245.0392324.3297074.2395874.481024.6552966.3824755 1.0507676z" fill="#f44335"/><path id="Shape" d="m46.04 45.82c-.4654987.2928028-.9614027.5342164-1.479.72.0166945.1235426.009566.2491397-.021.37-1.212 4.479-5.535 12.575-21.04 13.066.489.016.988.024 1.5.024 16.73 0 21.29-8.47 22.54-13.09.0985485-.395471-.0527681-.8111802-.3824755-1.0507676-.3297075-.2395874-.7718273-.2551087-1.1175245-.0392324z" fill="#c81e1e"/><path id="Shape" d="m40.5 46.85c-1.2346249-.2217606-2.389624-.7630587-3.35-1.57-.374224-.3200877-.925776-.3200877-1.3 0-3.0075869 2.4481548-7.3700235 2.2635241-10.16-.43-.1785291-.191212-.4283998-.2997671-.69-.2997671s-.5114709.1085551-.69.2997671c-2.7899765 2.6935241-7.1524131 2.8781548-10.16.43-.374224-.3200877-.925776-.3200877-1.3 0-.960376.8069413-2.1153751 1.3482394-3.35 1.57 1.7501172-4.751313 2.5979704-9.7875612 2.5-14.85.0418893-4.2671383-.5340819-8.5178736-1.71-12.62.9011464.2781689 1.7375523.7337721 2.46 1.34.374224.3200877.925776.3200877 1.3 0 1.3768331-1.1308663 3.1083908-1.7399214 4.89-1.72 1.9963161-.0285439 3.9204028.7461352 5.34 2.15.3888435.3811429 1.0111565.3811429 1.4 0 1.4195972-1.4038648 3.3436839-2.1785439 5.34-2.15h.04c1.7816092-.0199214 3.5131669.5891337 4.89 1.72.374224.3200877.925776.3200877 1.3 0 .7224477-.6062279 1.5588536-1.0618311 2.46-1.34-1.1759181 4.1021264-1.7518893 8.3528617-1.71 12.62-.0979704 5.0624388.7498828 10.098687 2.5 14.85z" fill="#ffeb3a"/><path id="Shape" d="m36.289 20.905c-.8789553 3.6322077-1.3118151 7.358026-1.289 11.095-.0531766 4.4437175.5792559 8.8690589 1.875 13.12.0993721.0388267.1921367.0927988.275.16.960376.8069413 2.1153751 1.3482394 3.35 1.57-1.7501172-4.751313-2.5979704-9.7875612-2.5-14.85-.0418893-4.2671383.5340819-8.5178736 1.71-12.62-.9011464.2781689-1.7375523.7337721-2.46 1.34-.2662127.2249086-.6303146.295001-.961.185z" fill="#fdd834"/><path id="Shape" d="m16.182 42c-.0637525-.0001355-.1273562-.0061611-.19-.018-.2604455-.0501204-.4903124-.2016525-.6390298-.4212591-.1487173-.2196066-.2041023-.4892976-.1539702-.7497409.5449409-2.9050739.8131416-5.8552822.801-8.811.0039919-2.2943198-.1544038-4.5860454-.474-6.858-.0613424-.35848.0767773-.7220011.3606873-.9493026.2839099-.2273015.6688426-.2825419 1.0052169-.1442555.3363743.1382865.5711501.4482945.6130958.8095581.3335952 2.365975.49901 4.7526262.495 7.142.0122227 3.0825771-.268033 6.1593618-.837 9.189-.0905386.4704077-.5019588.8105319-.981.811z" fill="#ffdc00"/><path id="Shape" d="m33.818 42c-.4790412-.0004681-.8904614-.3405923-.981-.811-.568967-3.0296382-.8492227-6.1064229-.837-9.189-.00401-2.3893738.1614048-4.776025.495-7.142.0419457-.3612636.2767215-.6712716.6130958-.8095581.3363743-.1382864.721307-.083046 1.0052169.1442555.28391.2273015.4220297.5908226.3606873.9493026-.3195962 2.2719546-.4779919 4.5636802-.474 6.858-.0124713 2.9556861.2553946 5.905894.8 8.811.0501321.2604433-.0052529.5301343-.1539702.7497409-.1487174.2196066-.3785843.3711387-.6390298.4212591-.0623155.0117777-.1255816.0178031-.189.018z" fill="#ffdc00"/><g fill="#a0522d"><path id="Shape" d="m23 31c-.2651948-.0000566-.5195073-.1054506-.707-.293l-1-1c-.3789722-.3923789-.3735524-1.0160848.0121814-1.4018186s1.0094397-.3911536 1.4018186-.0121814l1 1c.2859079.2859943.3714219.7160366.216678 1.0896546-.1547439.3736179-.5192821.6172591-.923678.6173454z"/><path id="Shape" d="m22 36c-.4043959-.0000863-.7689341-.2437275-.923678-.6173454-.1547439-.373618-.0692299-.8036603.216678-1.0896546l1-1c.3923789-.3789722 1.0160848-.3735524 1.4018186.0121814s.3911536 1.0094397.0121814 1.4018186l-1 1c-.1874927.1875494-.4418052.2929434-.707.293z"/><path id="Shape" d="m28 36c-.2651948-.0000566-.5195073-.1054506-.707-.293l-1-1c-.3789722-.3923789-.3735524-1.0160848.0121814-1.4018186s1.0094397-.3911536 1.4018186-.0121814l1 1c.2859079.2859943.3714219.7160366.216678 1.0896546-.1547439.3736179-.5192821.6172591-.923678.6173454z"/><path id="Shape" d="m27 31c-.4043959-.0000863-.7689341-.2437275-.923678-.6173454-.1547439-.373618-.0692299-.8036603.216678-1.0896546l1-1c.3923789-.3789722 1.0160848-.3735524 1.4018186.0121814s.3911536 1.0094397.0121814 1.4018186l-1 1c-.1874927.1875494-.4418052.2929434-.707.293z"/></g><circle id="Oval" cx="19" cy="12" fill="#f5f5f5" r="1"/><path id="Shape" d="m1.925 21.123c.67352239.4278718 1.53597217.4184633 2.2-.024 1.10735564-.7294104 2.40706419-1.1120462 3.733-1.099.54883751.0065605 1.09496967.0780579 1.627.213 1.0408249 3.8413948 1.5505626 7.8072556 1.515 11.787.0805372 4.7396516-.6732824 9.4565243-2.227 13.935-.2562267.0362977-.51430976.0579994-.773.065-1.24116737.0075309-2.45755542-.3473069-3.5-1.021-.69474151-.4373219-1.58616834-.4056904-2.24816556.0797742-.66199722.4854647-.96010933 1.3261617-.75183444 2.1202258 1.389 5.159 6.289 13.821 23.5 13.821s22.111-8.662 23.5-13.825c.2082749-.7940641-.0898372-1.6347611-.7518344-2.1202258-.6619973-.4854646-1.5534241-.5170961-2.2481656-.0797742-1.0420073.6751028-2.2584273 1.0313401-3.5 1.025-.2586902-.0070006-.5167733-.0287023-.773-.065-1.5537176-4.4784757-2.3075372-9.1953484-2.227-13.935-.0355626-3.9797444.4741751-7.9456052 1.515-11.787.5320303-.1349421 1.0781625-.2064395 1.627-.213 1.3253597-.0123512 2.6243232.3706185 3.731 1.1.6640278.4424633 1.5264776.4518718 2.2.024.667984-.4157438 1.0224252-1.1907886.9-1.968-1.111-7.385-6.561-12.156-13.882-12.156-4.875 0-7.692 1.053-9.24 2-.3227404-3.41613289-2.397755-6.41901501-5.479-7.929-.5122441-.20683062-1.0951693.04075592-1.302.55300001-.2068306.5122441.0407559 1.09516934.553 1.30199999 2.2692442 1.15699342 3.8291772 3.35068421 4.177 5.874-1.608-.89-4.359-1.8-8.891-1.8-7.321 0-12.771 4.771-13.886 12.155-.12202659.7776417.23325261 1.5527963.902 1.968zm44.644 25.532c-1.24 4.611-5.692 12.345-21.569 12.345s-20.329-7.734-21.58-12.338c1.36375944.8825699 2.95559949 1.3476096 4.58 1.338 2.0082159.019227 3.957778-.6765895 5.5-1.963 1.5426173 1.2857184 3.4919164 1.981441 5.5 1.963 2.2432415.0355002 4.4026507-.8516905 5.973-2.454 3.1567502 3.0740719 8.1192538 3.2854713 11.526.491 1.5428801 1.2859419 3.4925736 1.9816787 5.501 1.963 1.6223099.0120314 3.2119547-.4559205 4.569-1.345zm-7.709-1.434c-.3796268-.1972045-.7370045-.4345623-1.066-.708-.7448739-.637545-1.8431261-.637545-2.588 0-1.1815084.978392-2.6720915 1.5053765-4.206 1.487-1.7161675.0263197-3.3707502-.6389732-4.591-1.846-.779841-.7741227-2.038159-.7741227-2.818 0-1.2202498 1.2070268-2.8748325 1.8723197-4.591 1.846-1.5339085.0183765-3.0244916-.508608-4.206-1.487-.7448739-.637545-1.8431261-.637545-2.588 0-.3289955.2734377-.6863732.5107955-1.066.708 1.2824964-4.2881336 1.9095771-8.7454632 1.86-13.221.0189056-3.5994819-.3729622-7.1893672-1.168-10.7.087.065.186.116.27.187.747096.6356258 1.844904.6356258 2.592 0 1.1954954-.979836 2.6983899-1.5064157 4.244-1.487 1.7287915-.0276219 3.3966322.6382898 4.631 1.849.3729956.3772085.8815174.5893327 1.412.589.5306051-.0000432 1.0391062-.2125189 1.412-.59 1.2462012-1.2168044 2.928611-1.8825631 4.67-1.848 1.545531-.0187027 3.0480882.5085912 4.243 1.489.747096.6356258 1.844904.6356258 2.592 0 .084-.071.183-.122.27-.187-.7948865 3.5099809-1.1867534 7.0991865-1.168 10.698-.0495771 4.4755368.5775036 8.9328664 1.86 13.221zm-23.951-36.221c7.278 0 9.235 2.549 9.242 2.558.113381.1640618.2732267.2904757.459.363.1169899.0490073.2421853.0754713.369.078h.038c.1198864-.0030603.2381877-.0281442.349-.074l.035-.014c.1717974-.0721919.3215035-.1884384.434-.337.021-.025 1.978-2.574 9.256-2.574 6.372 0 10.935 4.005 11.895 10.437-3.211208-2.0938682-7.4052888-1.8827513-10.39.523-1.5673422-1.2912878-3.5414025-1.9856808-5.572-1.96-2.2575413-.0339958-4.4319376.8510673-6.024 2.452-1.6112272-1.5954584-3.7946598-2.4786285-6.062-2.452-2.0212922-.0171355-3.984322.6766147-5.546 1.96-1.5561154-1.2849587-3.5160186-1.9791059-5.534-1.96-1.72848032-.0133136-3.42105024.4932728-4.858 1.454.974-6.449 5.537-10.454 11.909-10.454z" fill="#000"/></g></g></svg>