<svg id="icons" enable-background="new 0 0 64 64" height="512" viewBox="0 0 64 64" width="512" xmlns="http://www.w3.org/2000/svg"><path d="m22.99 20.995v2h-4v-14h4v1.989z" fill="#e6e9ed"/><path d="m47.01 10.995c1.381 0 2.5 1.119 2.5 2.5 0 1.29-.98 2.359-2.24 2.489-.09.011-.17.011-.26.011v-.011h-3.25c1.26-.13 2.24-1.199 2.24-2.489h-.01v-2.511h.02 1z" fill="#eac6bb"/><path d="m58 40.995h.01v16c0 3.3-2.67 5.989-5.98 6-.01 0-.01 0-.02 0h-23.99-.02c-3.32 0-6-2.681-6-6v-15.99-.01c0-6.95 3.949-12.98 9.721-15.98.17-.08.34-.17.51-.25 1.42.78 3.049 1.22 4.77 1.22v.011h6.5 3.51v-.011c.68 0 1.291-.27 1.75-.71 5.509 3.07 9.239 8.959 9.239 15.72z" fill="#656d78"/><path d="m58 40.995c0-6.761-3.73-12.65-9.24-15.721-.459.44-1.07.71-1.75.71v.011h-.078c4.857 3.218 8.066 8.732 8.066 15h.01v16c0 3.3-2.67 5.989-5.98 6h2.982.02c3.311-.011 5.98-2.7 5.98-6v-16z" fill="#545c66"/><path d="m47.01 20.984c1.381 0 2.5 1.12 2.5 2.5 0 .7-.289 1.33-.75 1.79-.459.44-1.07.71-1.75.71v.011h-3.51v-.011c-1.381 0-2.5-1.12-2.5-2.5s1.119-2.5 2.5-2.5z" fill="#eac6bb"/><path d="m45.01 1.015-1.99 4.97h-6.01-.01c-.01 0-.02 0-.029 0l-1.961-4.98z" fill="#656d78"/><g fill="#eac6bb"><path d="m47.27 15.984c1.26.13 2.24 1.2 2.24 2.49 0 1.39-1.119 2.51-2.5 2.51h-3.51v-.01c-1.381 0-2.5-1.12-2.5-2.5 0-1.29.98-2.36 2.24-2.49.09.011.17.011.26.011s.17 0 .26-.011h3.25v.011c.09 0 .17 0 .26-.011z"/><path d="m47.01 5.984c1.381 0 2.5 1.12 2.5 2.5s-1.119 2.5-2.5 2.5h-1-.02v-5z"/><path d="m43.76 15.984c-.09.011-.17.011-.26.011s-.17 0-.26-.011c-1.26.13-2.24 1.2-2.24 2.49 0 1.38 1.119 2.5 2.5 2.5v.01c-1.381 0-2.5 1.12-2.5 2.5s1.119 2.5 2.5 2.5v.011h-6.5v-.011c-1.721 0-3.35-.439-4.77-1.22-1.611-.87-2.951-2.18-3.871-3.77h-5.35-.02v-10.01h.02 5.35c1.711-2.979 4.93-4.989 8.611-5h.029.01 6.01 2.971v5 2.511h.01c0 1.29-.98 2.359-2.24 2.489z"/></g><path d="m18.99 22.995v2h-13v-17.99h13v1.99z" fill="#ec87c0"/><path d="m47.01 11.989c-.553 0-1-.447-1-1s.447-1 1-1c.827 0 1.5-.674 1.5-1.502 0-.826-.673-1.498-1.5-1.498-.553 0-1-.447-1-1s.447-1 1-1c1.93 0 3.5 1.569 3.5 3.498 0 1.931-1.571 3.502-3.5 3.502z"/><path d="m47.01 17.001c-.553 0-1-.447-1-1s.447-1 1-1c.827 0 1.5-.674 1.5-1.502 0-.827-.673-1.5-1.5-1.5-.553 0-1-.447-1-1s.447-1 1-1c1.93 0 3.5 1.57 3.5 3.5 0 1.931-1.571 3.502-3.5 3.502z"/><path d="m47.01 21.983c-.553 0-1-.447-1-1s.447-1 1-1c.827 0 1.5-.674 1.5-1.502 0-.827-.673-1.5-1.5-1.5-.553 0-1-.447-1-1s.447-1 1-1c1.93 0 3.5 1.57 3.5 3.5 0 1.931-1.571 3.502-3.5 3.502z"/><path d="m43.496 21.981c-1.93 0-3.5-1.571-3.5-3.502 0-1.93 1.57-3.5 3.5-3.5.553 0 1 .447 1 1s-.447 1-1 1c-.827 0-1.5.673-1.5 1.5 0 .828.673 1.502 1.5 1.502.553 0 1 .447 1 1s-.447 1-1 1z"/><path d="m43.496 26.985c-1.93 0-3.5-1.571-3.5-3.502 0-1.93 1.57-3.5 3.5-3.5.553 0 1 .447 1 1s-.447 1-1 1c-.827 0-1.5.673-1.5 1.5 0 .828.673 1.502 1.5 1.502.553 0 1 .447 1 1s-.447 1-1 1z"/><path d="m47.01 26.985c-.553 0-1-.447-1-1s.447-1 1-1c.827 0 1.5-.674 1.5-1.502 0-.827-.673-1.5-1.5-1.5-.553 0-1-.447-1-1s.447-1 1-1c1.93 0 3.5 1.57 3.5 3.5 0 1.931-1.571 3.502-3.5 3.502z"/><path d="m43.497 16.995c-1.931 0-3.501-1.57-3.501-3.5 0-.553.447-1 1-1s1 .447 1 1c0 .827.674 1.5 1.501 1.5.826 0 1.499-.673 1.499-1.5 0-.553.447-1 1-1s1 .447 1 1c0 1.93-1.569 3.5-3.499 3.5z"/><path d="m47.008 16.989-3.512-.002c-.552 0-.999-.448-.999-1.001 0-.552.448-.999 1-.999h.001l3.511.002c.552 0 .999.448.999 1.001 0 .552-.448.999-1 .999z"/><path d="m47.008 21.987-3.513-.002c-.552 0-.999-.448-.999-1.001 0-.552.448-.999 1-.999h.001l3.512.002c.552 0 .999.448.999 1.001 0 .552-.448.999-1 .999z"/><path d="m47.012 6.987h-10.014c-.553 0-1-.447-1-1s.447-1 1-1h10.014c.553 0 1 .447 1 1s-.448 1-1 1z"/><path d="m47.01 26.999h-10.012c-.553 0-1-.447-1-1s.447-1 1-1h10.012c.553 0 1 .447 1 1s-.447 1-1 1z"/><path d="m45.992 14.495c-.553 0-1-.447-1-1v-7.514c0-.553.447-1 1-1s1 .447 1 1v7.514c0 .553-.447 1-1 1z"/><path d="m40.989 11.989h-2.99c-.553 0-1-.447-1-1s.447-1 1-1h2.99c.553 0 1 .447 1 1s-.447 1-1 1z"/><path d="m47.01 11.989h-1.004c-.553 0-1-.447-1-1s.447-1 1-1h1.004c.553 0 1 .447 1 1s-.447 1-1 1z"/><path d="m40.989 14.495c-.553 0-1-.447-1-1v-2.506c0-.553.447-1 1-1s1 .447 1 1v2.506c0 .553-.447 1-1 1z"/><path d="m23.007 22.001c-.552 0-1-.447-1-1 0-.552.447-1 1-1l5.35-.002c.552 0 1 .447 1 1 0 .552-.447 1-1 1z"/><path d="m23.007 11.991c-.552 0-1-.447-1-1 0-.552.447-1 1-1l5.35-.002c.552 0 1 .447 1 1 0 .552-.447 1-1 1z"/><path d="m22.991 23.999c-.553 0-1-.447-1-1v-13.998c0-.553.447-1 1-1s1 .447 1 1v13.998c0 .553-.447 1-1 1z"/><path d="m22.991 23.999h-4.001c-.553 0-1-.447-1-1s.447-1 1-1h4.001c.553 0 1 .447 1 1s-.447 1-1 1z"/><path d="m22.991 10.001h-4.001c-.553 0-1-.447-1-1s.447-1 1-1h4.001c.553 0 1 .447 1 1s-.447 1-1 1z"/><path d="m18.99 25.999c-.553 0-1-.447-1-1v-17.996c0-.553.447-1 1-1s1 .447 1 1v17.996c0 .553-.447 1-1 1z"/><path d="m18.99 8.003h-13.001c-.553 0-1-.447-1-1s.447-1 1-1h13.001c.553 0 1 .447 1 1s-.447 1-1 1z"/><path d="m18.99 25.999h-13.001c-.553 0-1-.447-1-1s.447-1 1-1h13.001c.553 0 1 .447 1 1s-.447 1-1 1z"/><path d="m37.01 26.985c-4.823 0-9.039-3.088-10.489-7.684-.167-.526.125-1.088.652-1.254.524-.17 1.089.126 1.254.652 1.188 3.759 4.637 6.285 8.583 6.285.553 0 1 .447 1 1s-.447 1.001-1 1.001z"/><path d="m27.465 13.999c-.099 0-.199-.015-.299-.046-.526-.164-.82-.726-.655-1.253 1.442-4.613 5.662-7.713 10.499-7.713.553 0 1 .447 1 1s-.447 1-1 1c-3.958 0-7.41 2.536-8.591 6.311-.134.428-.528.701-.954.701z"/><path d="m28.021 63.996c-.552 0-1-.447-1-1 0-.552.447-1 1-1l24.01-.002c.552 0 1 .447 1 1 0 .552-.447 1-1 1z"/><path d="m27.999 63.996c-3.859 0-7-3.141-7-7 0-.553.447-1 1-1s1 .447 1 1c0 2.757 2.243 5 5 5 .553 0 1 .447 1 1s-.447 1-1 1z"/><path d="m52.009 63.994c-.553 0-1-.447-1-1s.447-1 1-1c2.757 0 5-2.243 5-5 0-.553.447-1 1-1s1 .447 1 1c0 3.86-3.141 7-7 7z"/><path d="m21.999 57.996c-.553 0-1-.447-1-1v-16.003c0-.553.447-1 1-1s1 .447 1 1v16.003c0 .553-.447 1-1 1z"/><path d="m58.005 57.997c-.553 0-1-.447-1-1v-16.002c0-.553.447-1 1-1s1 .447 1 1v16.002c0 .553-.447 1-1 1z"/><path d="m58.003 42.009c-.553 0-1-.447-1-1 0-6.163-3.348-11.857-8.736-14.861-.482-.269-.655-.878-.386-1.36s.877-.655 1.36-.386c6.021 3.356 9.762 9.72 9.762 16.607 0 .553-.447 1-1 1z"/><path d="m21.999 42.009c-.553 0-1-.447-1-1 0-7.124 3.932-13.591 10.26-16.876.175-.091.354-.18.532-.266.498-.239 1.096-.031 1.335.466.24.497.031 1.095-.466 1.335-.161.078-.32.157-.479.239-5.664 2.94-9.183 8.727-9.183 15.102.001.553-.446 1-.999 1z"/><path d="m43.004 7.004c-.124 0-.25-.022-.372-.071-.513-.206-.762-.788-.557-1.301l2-4.99c.206-.513.789-.763 1.301-.557.513.206.762.788.557 1.301l-2 4.99c-.158.391-.533.628-.929.628z"/><path d="m36.977 7.004c-.398 0-.775-.239-.931-.633l-1.973-5c-.202-.514.05-1.095.563-1.298.517-.2 1.095.05 1.298.563l1.973 5c.202.514-.05 1.095-.563 1.298-.121.047-.245.07-.367.07z"/><path d="m45.004 2.013-10.001-.009c-.552 0-1-.448-.999-1.001.001-.552.448-.999 1-.999h.001l10 .009c.552 0 1 .448.999 1.001-.001.551-.448.999-1 .999z"/><path d="m33.004 45.013c-.553 0-1-.448-1-1.001.001-2.138.834-4.146 2.345-5.656 3.12-3.119 8.195-3.117 11.313 0 .391.391.391 1.023 0 1.414s-1.023.391-1.414 0c-2.341-2.341-6.146-2.34-8.485 0-1.134 1.133-1.758 2.64-1.759 4.244 0 .551-.448.999-1 .999z"/><path d="m40.006 52.009c-2.049 0-4.098-.779-5.657-2.339-.391-.391-.391-1.023 0-1.414s1.023-.391 1.414 0c2.34 2.338 6.146 2.338 8.485 0 1.132-1.132 1.756-2.641 1.757-4.248 0-.552.448-.999 1-.999h.001c.552 0 .999.448.999 1.001-.001 2.141-.833 4.15-2.343 5.66-1.559 1.559-3.607 2.339-5.656 2.339z"/><path d="m44.954 40.063h-2.84c-.553 0-1-.447-1-1s.447-1 1-1h2.84c.553 0 1 .447 1 1s-.447 1-1 1z"/><path d="m44.955 40.063c-.367 0-.722-.203-.896-.555l-1.415-2.842c-.246-.494-.045-1.095.45-1.341s1.096-.044 1.341.45l1.415 2.842c.246.494.045 1.095-.45 1.341-.143.072-.296.105-.445.105z"/><path d="m37.891 49.966h-2.84c-.553 0-1-.447-1-1s.447-1 1-1h2.84c.553 0 1 .447 1 1s-.448 1-1 1z"/><path d="m36.468 52.807c-.367 0-.721-.203-.896-.554l-1.416-2.841c-.247-.494-.046-1.095.448-1.341.497-.248 1.095-.044 1.341.448l1.416 2.841c.247.494.046 1.095-.448 1.341-.143.072-.296.106-.445.106z"/></svg>